<mxfile host="Electron" modified="2024-04-09T14:06:08.174Z" agent="Mozilla/5.0 (Windows NT 10.0; Win64; x64) AppleWebKit/537.36 (KHTML, like Gecko) draw.io/24.1.0 Chrome/120.0.6099.109 Electron/28.1.0 Safari/537.36" etag="h-kGYa54fHk1rQKXrl38" version="24.1.0" type="device">
  <diagram id="C5RBs43oDa-KdzZeNtuy" name="Page-1">
    <mxGraphModel dx="1717" dy="2185" grid="1" gridSize="10" guides="1" tooltips="1" connect="0" arrows="1" fold="1" page="1" pageScale="1" pageWidth="1920" pageHeight="1200" math="0" shadow="0">
      <root>
        <mxCell id="WIyWlLk6GJQsqaUBKTNV-0" />
        <mxCell id="WIyWlLk6GJQsqaUBKTNV-1" parent="WIyWlLk6GJQsqaUBKTNV-0" />
        <mxCell id="TXWLkSLQBE8h616JJge0-0" value="Papillary Muscles&amp;nbsp;(proxy)" style="rounded=0;whiteSpace=wrap;html=1;fillColor=#d5e8d4;strokeColor=#82b366;fontColor=#080808;" parent="WIyWlLk6GJQsqaUBKTNV-1" vertex="1">
          <mxGeometry x="828" y="950" width="172" height="30" as="geometry" />
        </mxCell>
        <mxCell id="TXWLkSLQBE8h616JJge0-1" value="Leaflet Segmentation&amp;nbsp;(proxy)" style="whiteSpace=wrap;html=1;fillColor=#d5e8d4;strokeColor=#82b366;fontColor=#080808;" parent="WIyWlLk6GJQsqaUBKTNV-1" vertex="1">
          <mxGeometry x="828" y="900" width="172" height="30" as="geometry" />
        </mxCell>
        <mxCell id="TXWLkSLQBE8h616JJge0-2" value="Annulus Contour&amp;nbsp;(proxy)" style="whiteSpace=wrap;html=1;fillColor=#d5e8d4;strokeColor=#82b366;fontColor=#080808;" parent="WIyWlLk6GJQsqaUBKTNV-1" vertex="1">
          <mxGeometry x="828" y="609" width="172" height="30" as="geometry" />
        </mxCell>
        <mxCell id="TXWLkSLQBE8h616JJge0-3" value="Valve Labels&amp;nbsp;(proxy)&lt;br&gt;(former AnnulusLabelsMarkup)" style="whiteSpace=wrap;html=1;fillColor=#d5e8d4;strokeColor=#82b366;fontColor=#080808;" parent="WIyWlLk6GJQsqaUBKTNV-1" vertex="1">
          <mxGeometry x="828" y="667" width="172" height="30" as="geometry" />
        </mxCell>
        <mxCell id="TXWLkSLQBE8h616JJge0-5" value="ProbeToRasTransform" style="whiteSpace=wrap;html=1;" parent="WIyWlLk6GJQsqaUBKTNV-1" vertex="1">
          <mxGeometry x="900" y="150" width="165" height="30" as="geometry" />
        </mxCell>
        <mxCell id="TXWLkSLQBE8h616JJge0-10" style="edgeStyle=orthogonalEdgeStyle;rounded=0;orthogonalLoop=1;jettySize=auto;html=1;entryX=0;entryY=0.5;entryDx=0;entryDy=0;exitX=0.5;exitY=1;exitDx=0;exitDy=0;fillColor=#dae8fc;strokeColor=#6c8ebf;" parent="WIyWlLk6GJQsqaUBKTNV-1" source="TXWLkSLQBE8h616JJge0-6" target="TXWLkSLQBE8h616JJge0-2" edge="1">
          <mxGeometry relative="1" as="geometry" />
        </mxCell>
        <mxCell id="TXWLkSLQBE8h616JJge0-11" style="edgeStyle=orthogonalEdgeStyle;rounded=0;orthogonalLoop=1;jettySize=auto;html=1;entryX=0;entryY=0.5;entryDx=0;entryDy=0;exitX=0.5;exitY=1;exitDx=0;exitDy=0;fillColor=#dae8fc;strokeColor=#6c8ebf;" parent="WIyWlLk6GJQsqaUBKTNV-1" source="TXWLkSLQBE8h616JJge0-6" target="TXWLkSLQBE8h616JJge0-3" edge="1">
          <mxGeometry relative="1" as="geometry" />
        </mxCell>
        <mxCell id="TXWLkSLQBE8h616JJge0-12" style="edgeStyle=orthogonalEdgeStyle;rounded=0;orthogonalLoop=1;jettySize=auto;html=1;entryX=0;entryY=0.5;entryDx=0;entryDy=0;exitX=0.5;exitY=1;exitDx=0;exitDy=0;fillColor=#dae8fc;strokeColor=#6c8ebf;" parent="WIyWlLk6GJQsqaUBKTNV-1" source="TXWLkSLQBE8h616JJge0-6" target="TXWLkSLQBE8h616JJge0-1" edge="1">
          <mxGeometry relative="1" as="geometry" />
        </mxCell>
        <mxCell id="TXWLkSLQBE8h616JJge0-13" style="edgeStyle=orthogonalEdgeStyle;rounded=0;orthogonalLoop=1;jettySize=auto;html=1;entryX=0;entryY=0.5;entryDx=0;entryDy=0;exitX=0.5;exitY=1;exitDx=0;exitDy=0;fillColor=#dae8fc;strokeColor=#6c8ebf;" parent="WIyWlLk6GJQsqaUBKTNV-1" source="TXWLkSLQBE8h616JJge0-6" target="TXWLkSLQBE8h616JJge0-0" edge="1">
          <mxGeometry relative="1" as="geometry" />
        </mxCell>
        <mxCell id="TXWLkSLQBE8h616JJge0-28" style="edgeStyle=orthogonalEdgeStyle;rounded=0;orthogonalLoop=1;jettySize=auto;html=1;entryX=0;entryY=0.5;entryDx=0;entryDy=0;fontSize=12;fillColor=#dae8fc;strokeColor=#6c8ebf;" parent="WIyWlLk6GJQsqaUBKTNV-1" source="TXWLkSLQBE8h616JJge0-6" target="TXWLkSLQBE8h616JJge0-27" edge="1">
          <mxGeometry relative="1" as="geometry" />
        </mxCell>
        <mxCell id="H9eetDiQkNHxvuzKdJjU-31" style="rounded=0;orthogonalLoop=1;jettySize=auto;html=1;exitX=0;exitY=0.75;exitDx=0;exitDy=0;entryX=0.41;entryY=0.951;entryDx=0;entryDy=0;dashed=1;entryPerimeter=0;edgeStyle=orthogonalEdgeStyle;fillColor=#dae8fc;strokeColor=#6c8ebf;" parent="WIyWlLk6GJQsqaUBKTNV-1" source="TXWLkSLQBE8h616JJge0-6" target="TXWLkSLQBE8h616JJge0-14" edge="1">
          <mxGeometry relative="1" as="geometry" />
        </mxCell>
        <mxCell id="TXWLkSLQBE8h616JJge0-6" value="Heart Valve&amp;nbsp;(proxy)&lt;br&gt;&amp;lt;&amp;lt;ScriptedModuleNode&amp;gt;&amp;gt;" style="whiteSpace=wrap;html=1;fillColor=#d5e8d4;strokeColor=#82b366;fontColor=#080808;" parent="WIyWlLk6GJQsqaUBKTNV-1" vertex="1">
          <mxGeometry x="655" y="529" width="178" height="30" as="geometry" />
        </mxCell>
        <mxCell id="TXWLkSLQBE8h616JJge0-16" style="edgeStyle=orthogonalEdgeStyle;rounded=0;orthogonalLoop=1;jettySize=auto;html=1;entryX=0.25;entryY=0;entryDx=0;entryDy=0;exitX=1;exitY=0.75;exitDx=0;exitDy=0;fillColor=#dae8fc;strokeColor=#6c8ebf;" parent="WIyWlLk6GJQsqaUBKTNV-1" source="24eH6vRZpodDstSiE4_X-5" target="TXWLkSLQBE8h616JJge0-5" edge="1">
          <mxGeometry relative="1" as="geometry" />
        </mxCell>
        <mxCell id="TXWLkSLQBE8h616JJge0-61" style="edgeStyle=orthogonalEdgeStyle;rounded=0;orthogonalLoop=1;jettySize=auto;html=1;entryX=0;entryY=0.5;entryDx=0;entryDy=0;fontSize=12;exitX=0.5;exitY=1;exitDx=0;exitDy=0;fillColor=#ffe6cc;strokeColor=#d79b00;" parent="WIyWlLk6GJQsqaUBKTNV-1" source="TXWLkSLQBE8h616JJge0-14" target="TXWLkSLQBE8h616JJge0-6" edge="1">
          <mxGeometry relative="1" as="geometry">
            <mxPoint x="690" y="340" as="sourcePoint" />
          </mxGeometry>
        </mxCell>
        <mxCell id="H9eetDiQkNHxvuzKdJjU-3" style="edgeStyle=orthogonalEdgeStyle;rounded=0;orthogonalLoop=1;jettySize=auto;html=1;exitX=0.5;exitY=1;exitDx=0;exitDy=0;entryX=0;entryY=0.5;entryDx=0;entryDy=0;fillColor=#ffe6cc;strokeColor=#d79b00;" parent="WIyWlLk6GJQsqaUBKTNV-1" source="TXWLkSLQBE8h616JJge0-14" target="H9eetDiQkNHxvuzKdJjU-4" edge="1">
          <mxGeometry relative="1" as="geometry">
            <mxPoint x="570" y="370" as="targetPoint" />
          </mxGeometry>
        </mxCell>
        <mxCell id="H9eetDiQkNHxvuzKdJjU-12" style="edgeStyle=orthogonalEdgeStyle;rounded=0;orthogonalLoop=1;jettySize=auto;html=1;exitX=0.25;exitY=1;exitDx=0;exitDy=0;entryX=0;entryY=0.25;entryDx=0;entryDy=0;fillColor=#ffe6cc;strokeColor=#d79b00;" parent="WIyWlLk6GJQsqaUBKTNV-1" source="TXWLkSLQBE8h616JJge0-14" target="TXWLkSLQBE8h616JJge0-2" edge="1">
          <mxGeometry relative="1" as="geometry" />
        </mxCell>
        <mxCell id="H9eetDiQkNHxvuzKdJjU-13" style="edgeStyle=orthogonalEdgeStyle;rounded=0;orthogonalLoop=1;jettySize=auto;html=1;exitX=0.25;exitY=1;exitDx=0;exitDy=0;entryX=0;entryY=0.25;entryDx=0;entryDy=0;fillColor=#ffe6cc;strokeColor=#d79b00;" parent="WIyWlLk6GJQsqaUBKTNV-1" source="TXWLkSLQBE8h616JJge0-14" target="TXWLkSLQBE8h616JJge0-3" edge="1">
          <mxGeometry relative="1" as="geometry" />
        </mxCell>
        <mxCell id="H9eetDiQkNHxvuzKdJjU-14" style="edgeStyle=orthogonalEdgeStyle;rounded=0;orthogonalLoop=1;jettySize=auto;html=1;exitX=0.25;exitY=1;exitDx=0;exitDy=0;entryX=0;entryY=0.25;entryDx=0;entryDy=0;fillColor=#ffe6cc;strokeColor=#d79b00;" parent="WIyWlLk6GJQsqaUBKTNV-1" source="TXWLkSLQBE8h616JJge0-14" target="TXWLkSLQBE8h616JJge0-1" edge="1">
          <mxGeometry relative="1" as="geometry" />
        </mxCell>
        <mxCell id="H9eetDiQkNHxvuzKdJjU-15" style="edgeStyle=orthogonalEdgeStyle;rounded=0;orthogonalLoop=1;jettySize=auto;html=1;exitX=0.25;exitY=1;exitDx=0;exitDy=0;entryX=0;entryY=0.25;entryDx=0;entryDy=0;fillColor=#ffe6cc;strokeColor=#d79b00;" parent="WIyWlLk6GJQsqaUBKTNV-1" source="TXWLkSLQBE8h616JJge0-14" target="TXWLkSLQBE8h616JJge0-0" edge="1">
          <mxGeometry relative="1" as="geometry" />
        </mxCell>
        <mxCell id="H9eetDiQkNHxvuzKdJjU-16" style="edgeStyle=orthogonalEdgeStyle;rounded=0;orthogonalLoop=1;jettySize=auto;html=1;exitX=0.25;exitY=1;exitDx=0;exitDy=0;entryX=0;entryY=0.25;entryDx=0;entryDy=0;fillColor=#ffe6cc;strokeColor=#d79b00;" parent="WIyWlLk6GJQsqaUBKTNV-1" source="TXWLkSLQBE8h616JJge0-14" target="TXWLkSLQBE8h616JJge0-27" edge="1">
          <mxGeometry relative="1" as="geometry" />
        </mxCell>
        <mxCell id="H9eetDiQkNHxvuzKdJjU-23" style="edgeStyle=orthogonalEdgeStyle;rounded=0;orthogonalLoop=1;jettySize=auto;html=1;exitX=0.135;exitY=-0.062;exitDx=0;exitDy=0;entryX=0;entryY=0.75;entryDx=0;entryDy=0;fillColor=#dae8fc;strokeColor=#6c8ebf;exitPerimeter=0;" parent="WIyWlLk6GJQsqaUBKTNV-1" source="TXWLkSLQBE8h616JJge0-14" target="24eH6vRZpodDstSiE4_X-5" edge="1">
          <mxGeometry relative="1" as="geometry" />
        </mxCell>
        <mxCell id="H9eetDiQkNHxvuzKdJjU-35" style="edgeStyle=orthogonalEdgeStyle;rounded=0;orthogonalLoop=1;jettySize=auto;html=1;exitX=0.5;exitY=1;exitDx=0;exitDy=0;entryX=0;entryY=0.5;entryDx=0;entryDy=0;fillColor=#ffe6cc;strokeColor=#d79b00;" parent="WIyWlLk6GJQsqaUBKTNV-1" source="TXWLkSLQBE8h616JJge0-14" target="H9eetDiQkNHxvuzKdJjU-34" edge="1">
          <mxGeometry relative="1" as="geometry" />
        </mxCell>
        <mxCell id="24eH6vRZpodDstSiE4_X-4" style="edgeStyle=orthogonalEdgeStyle;rounded=0;orthogonalLoop=1;jettySize=auto;html=1;exitX=0.5;exitY=1;exitDx=0;exitDy=0;entryX=0;entryY=0.5;entryDx=0;entryDy=0;fillColor=#dae8fc;strokeColor=#6c8ebf;" parent="WIyWlLk6GJQsqaUBKTNV-1" source="TXWLkSLQBE8h616JJge0-14" target="24eH6vRZpodDstSiE4_X-3" edge="1">
          <mxGeometry relative="1" as="geometry" />
        </mxCell>
        <mxCell id="24eH6vRZpodDstSiE4_X-10" style="edgeStyle=orthogonalEdgeStyle;rounded=0;orthogonalLoop=1;jettySize=auto;html=1;exitX=0.5;exitY=1;exitDx=0;exitDy=0;entryX=0;entryY=0.5;entryDx=0;entryDy=0;fillColor=#fff2cc;strokeColor=#d6b656;" parent="WIyWlLk6GJQsqaUBKTNV-1" source="TXWLkSLQBE8h616JJge0-14" target="H9eetDiQkNHxvuzKdJjU-5" edge="1">
          <mxGeometry relative="1" as="geometry" />
        </mxCell>
        <mxCell id="TXWLkSLQBE8h616JJge0-14" value="ValveBrowser&lt;br&gt;&amp;lt;&amp;lt;SequenceBrowserNode&amp;gt;&amp;gt;&lt;span style=&quot;font-family: monospace; font-size: 0px; text-align: start;&quot;&gt;%3CmxGraphModel%3E%3Croot%3E%3CmxCell%20id%3D%220%22%2F%3E%3CmxCell%20id%3D%221%22%20parent%3D%220%22%2F%3E%3CmxCell%20id%3D%222%22%20value%3D%22ScriptedModuleNode%22%20style%3D%22whiteSpace%3Dwrap%3Bhtml%3D1%3B%22%20vertex%3D%221%22%20parent%3D%221%22%3E%3CmxGeometry%20x%3D%22690%22%20y%3D%22405%22%20width%3D%22120%22%20height%3D%2260%22%20as%3D%22geometry%22%2F%3E%3C%2FmxCell%3E%3C%2Froot%3E%3C%2FmxGraphModel%3ES&lt;/span&gt;" style="whiteSpace=wrap;html=1;fillColor=#ffe6cc;strokeColor=#d79b00;fontColor=#030303;" parent="WIyWlLk6GJQsqaUBKTNV-1" vertex="1">
          <mxGeometry x="555" y="190" width="160" height="40" as="geometry" />
        </mxCell>
        <mxCell id="TXWLkSLQBE8h616JJge0-19" value="Same as for single-phase&lt;br&gt;(same nodes, same node references)" style="text;html=1;strokeColor=none;fillColor=none;align=left;verticalAlign=middle;whiteSpace=wrap;rounded=0;" parent="WIyWlLk6GJQsqaUBKTNV-1" vertex="1">
          <mxGeometry x="1060" y="748" width="210" height="30" as="geometry" />
        </mxCell>
        <mxCell id="TXWLkSLQBE8h616JJge0-27" value="Leaflet Volume (proxy)" style="whiteSpace=wrap;html=1;fontSize=12;fillColor=#d5e8d4;strokeColor=#82b366;fontColor=#080808;" parent="WIyWlLk6GJQsqaUBKTNV-1" vertex="1">
          <mxGeometry x="828" y="806" width="172" height="30" as="geometry" />
        </mxCell>
        <mxCell id="TXWLkSLQBE8h616JJge0-63" value="4D Heart Valves" style="text;html=1;strokeColor=none;fillColor=none;align=left;verticalAlign=middle;whiteSpace=wrap;rounded=0;fontSize=24;fontStyle=4" parent="WIyWlLk6GJQsqaUBKTNV-1" vertex="1">
          <mxGeometry x="50" y="40" width="260" height="30" as="geometry" />
        </mxCell>
        <mxCell id="H9eetDiQkNHxvuzKdJjU-4" value="Heart Valve sequence&lt;br&gt;&amp;lt;&amp;lt;SequenceNode&amp;gt;&amp;gt;" style="whiteSpace=wrap;html=1;fillColor=#e1d5e7;strokeColor=#9673a6;fontColor=#080808;" parent="WIyWlLk6GJQsqaUBKTNV-1" vertex="1">
          <mxGeometry x="655" y="488" width="178" height="30" as="geometry" />
        </mxCell>
        <mxCell id="H9eetDiQkNHxvuzKdJjU-5" value="Annulus Contour sequence&lt;br&gt;&amp;lt;&amp;lt;SequenceNode&amp;gt;&amp;gt;" style="whiteSpace=wrap;html=1;fillColor=#e1d5e7;strokeColor=#9673a6;fontColor=#030303;" parent="WIyWlLk6GJQsqaUBKTNV-1" vertex="1">
          <mxGeometry x="655" y="320" width="178" height="30" as="geometry" />
        </mxCell>
        <mxCell id="H9eetDiQkNHxvuzKdJjU-22" value="Valve volume sequence&lt;br&gt;&amp;lt;&amp;lt;SequenceNode&amp;gt;&amp;gt;" style="whiteSpace=wrap;html=1;fillColor=#e1d5e7;strokeColor=#9673a6;fontColor=#000000;" parent="WIyWlLk6GJQsqaUBKTNV-1" vertex="1">
          <mxGeometry x="670" y="-20" width="180" height="30" as="geometry" />
        </mxCell>
        <mxCell id="H9eetDiQkNHxvuzKdJjU-26" value="" style="shape=curlyBracket;whiteSpace=wrap;html=1;rounded=1;flipH=1;labelPosition=right;verticalLabelPosition=middle;align=left;verticalAlign=middle;" parent="WIyWlLk6GJQsqaUBKTNV-1" vertex="1">
          <mxGeometry x="1030" y="528" width="20" height="470" as="geometry" />
        </mxCell>
        <mxCell id="H9eetDiQkNHxvuzKdJjU-27" value="Sequences module automatically updates single-phase nodes from the sequence nodes" style="text;html=1;strokeColor=none;fillColor=none;align=left;verticalAlign=middle;whiteSpace=wrap;rounded=0;" parent="WIyWlLk6GJQsqaUBKTNV-1" vertex="1">
          <mxGeometry x="940" y="420" width="250" height="30" as="geometry" />
        </mxCell>
        <mxCell id="H9eetDiQkNHxvuzKdJjU-33" value="" style="shape=flexArrow;endArrow=classic;startArrow=classic;html=1;rounded=0;edgeStyle=orthogonalEdgeStyle;" parent="WIyWlLk6GJQsqaUBKTNV-1" edge="1">
          <mxGeometry width="100" height="100" relative="1" as="geometry">
            <mxPoint x="880" y="420" as="sourcePoint" />
            <mxPoint x="920" y="580" as="targetPoint" />
          </mxGeometry>
        </mxCell>
        <mxCell id="H9eetDiQkNHxvuzKdJjU-34" value="...&lt;br&gt;&amp;lt;&amp;lt;SequenceNode&amp;gt;&amp;gt;" style="whiteSpace=wrap;html=1;fillColor=#e1d5e7;strokeColor=#9673a6;fontColor=#030303;" parent="WIyWlLk6GJQsqaUBKTNV-1" vertex="1">
          <mxGeometry x="655" y="380" width="178" height="30" as="geometry" />
        </mxCell>
        <mxCell id="H9eetDiQkNHxvuzKdJjU-38" value="Heart Valve node can access Valve Browser node and retrieve common data across all frames." style="text;html=1;strokeColor=none;fillColor=none;align=left;verticalAlign=middle;whiteSpace=wrap;rounded=0;" parent="WIyWlLk6GJQsqaUBKTNV-1" vertex="1">
          <mxGeometry x="380" y="568" width="250" height="30" as="geometry" />
        </mxCell>
        <mxCell id="24eH6vRZpodDstSiE4_X-2" style="edgeStyle=orthogonalEdgeStyle;rounded=0;orthogonalLoop=1;jettySize=auto;html=1;exitX=0.5;exitY=1;exitDx=0;exitDy=0;entryX=0;entryY=0.5;entryDx=0;entryDy=0;fillColor=#ffe6cc;strokeColor=#d79b00;" parent="WIyWlLk6GJQsqaUBKTNV-1" source="24eH6vRZpodDstSiE4_X-1" target="H9eetDiQkNHxvuzKdJjU-22" edge="1">
          <mxGeometry relative="1" as="geometry" />
        </mxCell>
        <mxCell id="24eH6vRZpodDstSiE4_X-6" style="edgeStyle=orthogonalEdgeStyle;rounded=0;orthogonalLoop=1;jettySize=auto;html=1;exitX=0.5;exitY=1;exitDx=0;exitDy=0;entryX=0;entryY=0.5;entryDx=0;entryDy=0;fillColor=#ffe6cc;strokeColor=#d79b00;" parent="WIyWlLk6GJQsqaUBKTNV-1" source="24eH6vRZpodDstSiE4_X-1" target="24eH6vRZpodDstSiE4_X-5" edge="1">
          <mxGeometry relative="1" as="geometry" />
        </mxCell>
        <mxCell id="24eH6vRZpodDstSiE4_X-1" value="&lt;div style=&quot;color: rgb(212, 212, 212); background-color: rgb(30, 30, 30); font-family: Consolas, &amp;quot;Courier New&amp;quot;, monospace; font-size: 14px; line-height: 19px;&quot;&gt;&lt;/div&gt;VolumeSequenceBrowser&lt;br&gt;&amp;lt;&amp;lt;SequenceBrowserNode&amp;gt;&amp;gt;&lt;span style=&quot;font-family: monospace; font-size: 0px; text-align: start;&quot;&gt;%3CmxGraphModel%3E%3Croot%3E%3CmxCell%20id%3D%220%22%2F%3E%3CmxCell%20id%3D%221%22%20parent%3D%220%22%2F%3E%3CmxCell%20id%3D%222%22%20value%3D%22ScriptedModuleNode%22%20style%3D%22whiteSpace%3Dwrap%3Bhtml%3D1%3B%22%20vertex%3D%221%22%20parent%3D%221%22%3E%3CmxGeometry%20x%3D%22690%22%20y%3D%22405%22%20width%3D%22120%22%20height%3D%2260%22%20as%3D%22geometry%22%2F%3E%3C%2FmxCell%3E%3C%2Froot%3E%3C%2FmxGraphModel%3ES&lt;/span&gt;" style="whiteSpace=wrap;html=1;fillColor=#ffe6cc;strokeColor=#d79b00;fontColor=#000000;" parent="WIyWlLk6GJQsqaUBKTNV-1" vertex="1">
          <mxGeometry x="530" y="-80" width="160" height="40" as="geometry" />
        </mxCell>
        <mxCell id="24eH6vRZpodDstSiE4_X-3" value="AxialSliceToRasTransform" style="whiteSpace=wrap;html=1;" parent="WIyWlLk6GJQsqaUBKTNV-1" vertex="1">
          <mxGeometry x="910" y="250" width="165" height="30" as="geometry" />
        </mxCell>
        <mxCell id="24eH6vRZpodDstSiE4_X-5" value="Valve volume (proxy)" style="whiteSpace=wrap;html=1;fontSize=12;fillColor=#d5e8d4;strokeColor=#82b366;fontColor=#000000;" parent="WIyWlLk6GJQsqaUBKTNV-1" vertex="1">
          <mxGeometry x="669" y="70" width="180" height="30" as="geometry" />
        </mxCell>
        <mxCell id="24eH6vRZpodDstSiE4_X-8" value="node reference" style="endArrow=classic;html=1;rounded=0;fillColor=#dae8fc;strokeColor=#6c8ebf;" parent="WIyWlLk6GJQsqaUBKTNV-1" edge="1">
          <mxGeometry width="50" height="50" relative="1" as="geometry">
            <mxPoint x="240" y="320" as="sourcePoint" />
            <mxPoint x="440" y="320" as="targetPoint" />
          </mxGeometry>
        </mxCell>
        <mxCell id="24eH6vRZpodDstSiE4_X-9" value="sequence or proxy reference" style="endArrow=classic;html=1;rounded=0;fillColor=#ffe6cc;strokeColor=#d79b00;" parent="WIyWlLk6GJQsqaUBKTNV-1" edge="1">
          <mxGeometry width="50" height="50" relative="1" as="geometry">
            <mxPoint x="240" y="360" as="sourcePoint" />
            <mxPoint x="440" y="360" as="targetPoint" />
          </mxGeometry>
        </mxCell>
        <mxCell id="vHw_XgUT5hpDHiSDQdwm-0" value="Clipped Valve Volume A&amp;nbsp;(proxy)" style="whiteSpace=wrap;html=1;fontSize=12;fillColor=#d5e8d4;strokeColor=#82b366;fontColor=#080808;" parent="WIyWlLk6GJQsqaUBKTNV-1" vertex="1">
          <mxGeometry x="670" y="110" width="180" height="30" as="geometry" />
        </mxCell>
        <mxCell id="201H1WidRGv-Px01H2L--0" value="It is used for reviewing processed/annotated frames. It usually contains less frames than the volume sequence." style="text;html=1;strokeColor=none;fillColor=none;align=left;verticalAlign=middle;whiteSpace=wrap;rounded=0;" parent="WIyWlLk6GJQsqaUBKTNV-1" vertex="1">
          <mxGeometry x="720" y="195" width="320" height="30" as="geometry" />
        </mxCell>
        <mxCell id="201H1WidRGv-Px01H2L--1" value="It is used for reviewing all frames of an acquired ultrasound sequence." style="text;html=1;strokeColor=none;fillColor=none;align=left;verticalAlign=middle;whiteSpace=wrap;rounded=0;" parent="WIyWlLk6GJQsqaUBKTNV-1" vertex="1">
          <mxGeometry x="700" y="-80" width="210" height="30" as="geometry" />
        </mxCell>
        <mxCell id="201H1WidRGv-Px01H2L--2" value="It stores the transducer pose, it can be used for orienting the views. It is the same for all time points." style="text;html=1;strokeColor=none;fillColor=none;align=left;verticalAlign=middle;whiteSpace=wrap;rounded=0;" parent="WIyWlLk6GJQsqaUBKTNV-1" vertex="1">
          <mxGeometry x="1090" y="250" width="330" height="30" as="geometry" />
        </mxCell>
        <mxCell id="201H1WidRGv-Px01H2L--9" value="" style="edgeStyle=orthogonalEdgeStyle;rounded=0;orthogonalLoop=1;jettySize=auto;html=1;exitX=1;exitY=0.5;exitDx=0;exitDy=0;entryX=0.25;entryY=0;entryDx=0;entryDy=0;fillColor=#dae8fc;strokeColor=#6c8ebf;" parent="WIyWlLk6GJQsqaUBKTNV-1" source="vHw_XgUT5hpDHiSDQdwm-0" target="TXWLkSLQBE8h616JJge0-5" edge="1">
          <mxGeometry relative="1" as="geometry" />
        </mxCell>
        <mxCell id="201H1WidRGv-Px01H2L--4" value="..." style="text;html=1;strokeColor=none;fillColor=none;align=left;verticalAlign=middle;whiteSpace=wrap;rounded=0;" parent="WIyWlLk6GJQsqaUBKTNV-1" vertex="1">
          <mxGeometry x="729" y="350" width="30" height="30" as="geometry" />
        </mxCell>
        <mxCell id="201H1WidRGv-Px01H2L--8" value="Positions the valve in RAS space. This transform is applied to all nodes related to the valve." style="text;html=1;strokeColor=none;fillColor=none;align=left;verticalAlign=middle;whiteSpace=wrap;rounded=0;" parent="WIyWlLk6GJQsqaUBKTNV-1" vertex="1">
          <mxGeometry x="1070" y="150" width="320" height="30" as="geometry" />
        </mxCell>
        <mxCell id="201H1WidRGv-Px01H2L--10" value="...&lt;br&gt;&amp;lt;&amp;lt;SequenceNode&amp;gt;&amp;gt;" style="whiteSpace=wrap;html=1;fillColor=#e1d5e7;strokeColor=#9673a6;fontColor=#030303;" parent="WIyWlLk6GJQsqaUBKTNV-1" vertex="1">
          <mxGeometry x="670" y="20" width="178" height="30" as="geometry" />
        </mxCell>
        <mxCell id="201H1WidRGv-Px01H2L--11" style="edgeStyle=orthogonalEdgeStyle;rounded=0;orthogonalLoop=1;jettySize=auto;html=1;exitX=0.5;exitY=1;exitDx=0;exitDy=0;entryX=0;entryY=0.5;entryDx=0;entryDy=0;fillColor=#ffe6cc;strokeColor=#d79b00;" parent="WIyWlLk6GJQsqaUBKTNV-1" source="24eH6vRZpodDstSiE4_X-1" target="vHw_XgUT5hpDHiSDQdwm-0" edge="1">
          <mxGeometry relative="1" as="geometry">
            <mxPoint x="620" y="-30" as="sourcePoint" />
            <mxPoint x="679" y="95" as="targetPoint" />
          </mxGeometry>
        </mxCell>
        <mxCell id="201H1WidRGv-Px01H2L--12" style="edgeStyle=orthogonalEdgeStyle;rounded=0;orthogonalLoop=1;jettySize=auto;html=1;exitX=0.5;exitY=1;exitDx=0;exitDy=0;entryX=0;entryY=0.5;entryDx=0;entryDy=0;fillColor=#ffe6cc;strokeColor=#d79b00;" parent="WIyWlLk6GJQsqaUBKTNV-1" source="24eH6vRZpodDstSiE4_X-1" target="201H1WidRGv-Px01H2L--10" edge="1">
          <mxGeometry relative="1" as="geometry">
            <mxPoint x="620" y="-30" as="sourcePoint" />
            <mxPoint x="680" y="5" as="targetPoint" />
          </mxGeometry>
        </mxCell>
        <mxCell id="201H1WidRGv-Px01H2L--13" value="" style="curved=1;endArrow=classic;html=1;rounded=0;entryX=1;entryY=0.611;entryDx=0;entryDy=0;edgeStyle=orthogonalEdgeStyle;entryPerimeter=0;" parent="WIyWlLk6GJQsqaUBKTNV-1" target="vHw_XgUT5hpDHiSDQdwm-0" edge="1">
          <mxGeometry width="50" height="50" relative="1" as="geometry">
            <mxPoint x="1060" y="60" as="sourcePoint" />
            <mxPoint x="1090" y="20" as="targetPoint" />
          </mxGeometry>
        </mxCell>
        <mxCell id="201H1WidRGv-Px01H2L--14" value="Valve volume, but with region outside the ROI blanked out. and reduced to minimum necessary size.&lt;br&gt;The region is computed from the annulus contour sequence.&lt;br&gt;There can be multiple clipped volumes, one for each valve.&lt;br&gt;We know which valve each clipped volume belongs to because the ValveBrowser has a reference to it." style="text;html=1;strokeColor=none;fillColor=none;align=left;verticalAlign=middle;whiteSpace=wrap;rounded=0;" parent="WIyWlLk6GJQsqaUBKTNV-1" vertex="1">
          <mxGeometry x="1065" y="30" width="320" height="80" as="geometry" />
        </mxCell>
        <mxCell id="FMtwze112QoW8ohogXbG-1" value="Uses the common Valve Volume sequence&amp;nbsp;" style="text;html=1;strokeColor=none;fillColor=none;align=left;verticalAlign=middle;whiteSpace=wrap;rounded=0;" parent="WIyWlLk6GJQsqaUBKTNV-1" vertex="1">
          <mxGeometry x="830" y="836" width="210" height="30" as="geometry" />
        </mxCell>
        <mxCell id="FMtwze112QoW8ohogXbG-3" value="Stores the clipping ROI that is extruded from the annulus contour" style="text;html=1;strokeColor=none;fillColor=none;align=left;verticalAlign=middle;whiteSpace=wrap;rounded=0;" parent="WIyWlLk6GJQsqaUBKTNV-1" vertex="1">
          <mxGeometry x="830" y="740" width="205" height="40" as="geometry" />
        </mxCell>
        <mxCell id="FMtwze112QoW8ohogXbG-6" style="edgeStyle=orthogonalEdgeStyle;rounded=0;orthogonalLoop=1;jettySize=auto;html=1;fillColor=#dae8fc;strokeColor=#6c8ebf;entryX=-0.004;entryY=0.956;entryDx=0;entryDy=0;entryPerimeter=0;exitX=0.36;exitY=0.017;exitDx=0;exitDy=0;exitPerimeter=0;" parent="WIyWlLk6GJQsqaUBKTNV-1" source="TXWLkSLQBE8h616JJge0-14" target="vHw_XgUT5hpDHiSDQdwm-0" edge="1">
          <mxGeometry relative="1" as="geometry">
            <mxPoint x="620" y="180" as="sourcePoint" />
            <mxPoint x="670" y="130" as="targetPoint" />
          </mxGeometry>
        </mxCell>
        <mxCell id="FMtwze112QoW8ohogXbG-7" value="Clipped Valve Volume B&amp;nbsp;(proxy)" style="whiteSpace=wrap;html=1;fontSize=12;fillColor=#d5e8d4;strokeColor=#82b366;fontColor=#080808;" parent="WIyWlLk6GJQsqaUBKTNV-1" vertex="1">
          <mxGeometry x="670" y="150" width="180" height="30" as="geometry" />
        </mxCell>
        <mxCell id="FMtwze112QoW8ohogXbG-8" value="Valve ROI Model (proxy)" style="whiteSpace=wrap;html=1;fillColor=#d5e8d4;strokeColor=#82b366;fontColor=#080808;" parent="WIyWlLk6GJQsqaUBKTNV-1" vertex="1">
          <mxGeometry x="828" y="710" width="172" height="30" as="geometry" />
        </mxCell>
        <mxCell id="glV9J2HKgnPFTotQAbif-5" value="master node" style="text;html=1;strokeColor=none;fillColor=none;align=left;verticalAlign=middle;whiteSpace=wrap;rounded=0;" parent="WIyWlLk6GJQsqaUBKTNV-1" vertex="1">
          <mxGeometry x="833" y="488" width="57" height="32" as="geometry" />
        </mxCell>
        <mxCell id="glV9J2HKgnPFTotQAbif-6" value="master node" style="text;html=1;strokeColor=none;fillColor=none;align=left;verticalAlign=middle;whiteSpace=wrap;rounded=0;" parent="WIyWlLk6GJQsqaUBKTNV-1" vertex="1">
          <mxGeometry x="853" y="-21" width="57" height="32" as="geometry" />
        </mxCell>
        <mxCell id="dzikKKr6gzHAAoWWZuvZ-0" value="Measurement" style="whiteSpace=wrap;html=1;fillColor=#d5e8d4;strokeColor=#82b366;fontColor=#080808;" parent="WIyWlLk6GJQsqaUBKTNV-1" vertex="1">
          <mxGeometry x="300" y="-120" width="172" height="30" as="geometry" />
        </mxCell>
        <mxCell id="dzikKKr6gzHAAoWWZuvZ-2" style="edgeStyle=orthogonalEdgeStyle;rounded=0;orthogonalLoop=1;jettySize=auto;html=1;fillColor=#dae8fc;strokeColor=#6c8ebf;" parent="WIyWlLk6GJQsqaUBKTNV-1" source="dzikKKr6gzHAAoWWZuvZ-0" target="TXWLkSLQBE8h616JJge0-14" edge="1">
          <mxGeometry relative="1" as="geometry">
            <mxPoint x="587" y="198" as="sourcePoint" />
            <mxPoint x="679" y="103" as="targetPoint" />
            <Array as="points">
              <mxPoint x="430" y="210" />
            </Array>
          </mxGeometry>
        </mxCell>
        <mxCell id="dzikKKr6gzHAAoWWZuvZ-3" value="- New&lt;span style=&quot;text-align: center;&quot;&gt;&amp;nbsp;Valve Browser for all phases&lt;br&gt;- Keep the same heart valve node (it retrieves common information from Valve Browser node)&lt;br&gt;&lt;/span&gt;&lt;span style=&quot;&quot;&gt;- less redundancy / less overhead / same ProbeToRasTransform for all frames&lt;/span&gt;&lt;br style=&quot;&quot;&gt;&lt;span style=&quot;&quot;&gt;- uses up-to-date Slicer Markups&lt;/span&gt;" style="text;html=1;strokeColor=none;fillColor=none;align=left;verticalAlign=middle;whiteSpace=wrap;rounded=0;fixDash=0;" parent="WIyWlLk6GJQsqaUBKTNV-1" vertex="1">
          <mxGeometry x="50" y="80" width="330" height="110" as="geometry" />
        </mxCell>
        <mxCell id="Yu7AbHlA18cFeZVvKWmo-0" style="edgeStyle=orthogonalEdgeStyle;rounded=0;orthogonalLoop=1;jettySize=auto;html=1;exitX=0.998;exitY=0.528;exitDx=0;exitDy=0;fillColor=#dae8fc;strokeColor=#6c8ebf;exitPerimeter=0;" edge="1" parent="WIyWlLk6GJQsqaUBKTNV-1" source="FMtwze112QoW8ohogXbG-7">
          <mxGeometry relative="1" as="geometry">
            <mxPoint x="859" y="103" as="sourcePoint" />
            <mxPoint x="900" y="166" as="targetPoint" />
          </mxGeometry>
        </mxCell>
        <mxCell id="Yu7AbHlA18cFeZVvKWmo-1" style="edgeStyle=orthogonalEdgeStyle;rounded=0;orthogonalLoop=1;jettySize=auto;html=1;exitX=0.833;exitY=0.033;exitDx=0;exitDy=0;fillColor=#dae8fc;strokeColor=#6c8ebf;exitPerimeter=0;entryX=0.446;entryY=0.954;entryDx=0;entryDy=0;entryPerimeter=0;" edge="1" parent="WIyWlLk6GJQsqaUBKTNV-1" source="TXWLkSLQBE8h616JJge0-2" target="TXWLkSLQBE8h616JJge0-5">
          <mxGeometry relative="1" as="geometry">
            <mxPoint x="860" y="176" as="sourcePoint" />
            <mxPoint x="910" y="176" as="targetPoint" />
          </mxGeometry>
        </mxCell>
        <mxCell id="Yu7AbHlA18cFeZVvKWmo-2" style="edgeStyle=orthogonalEdgeStyle;rounded=0;orthogonalLoop=1;jettySize=auto;html=1;entryX=-0.006;entryY=0.472;entryDx=0;entryDy=0;exitX=0.501;exitY=0.95;exitDx=0;exitDy=0;fillColor=#dae8fc;strokeColor=#6c8ebf;entryPerimeter=0;exitPerimeter=0;" edge="1" parent="WIyWlLk6GJQsqaUBKTNV-1" source="TXWLkSLQBE8h616JJge0-6" target="FMtwze112QoW8ohogXbG-8">
          <mxGeometry relative="1" as="geometry">
            <mxPoint x="754" y="569" as="sourcePoint" />
            <mxPoint x="838" y="692" as="targetPoint" />
          </mxGeometry>
        </mxCell>
        <mxCell id="Yu7AbHlA18cFeZVvKWmo-3" style="edgeStyle=orthogonalEdgeStyle;rounded=0;orthogonalLoop=1;jettySize=auto;html=1;exitX=0.234;exitY=1.035;exitDx=0;exitDy=0;entryX=0.006;entryY=0.287;entryDx=0;entryDy=0;fillColor=#ffe6cc;strokeColor=#d79b00;entryPerimeter=0;exitPerimeter=0;" edge="1" parent="WIyWlLk6GJQsqaUBKTNV-1" source="TXWLkSLQBE8h616JJge0-14" target="FMtwze112QoW8ohogXbG-8">
          <mxGeometry relative="1" as="geometry">
            <mxPoint x="605" y="240" as="sourcePoint" />
            <mxPoint x="838" y="685" as="targetPoint" />
            <Array as="points">
              <mxPoint x="592" y="719" />
            </Array>
          </mxGeometry>
        </mxCell>
      </root>
    </mxGraphModel>
  </diagram>
</mxfile>
